<?xml version="1.0" encoding="UTF-8" standalone="no"?>
<svg
   viewBox="0 0 12.74347 21.999969"
   version="1.1"
   id="svg4"
   sodipodi:docname="odno-g.svg"
   inkscape:version="1.1 (c68e22c387, 2021-05-23)"
   width="12.74347"
   height="21.999969"
   xmlns:inkscape="http://www.inkscape.org/namespaces/inkscape"
   xmlns:sodipodi="http://sodipodi.sourceforge.net/DTD/sodipodi-0.dtd"
   xmlns="http://www.w3.org/2000/svg"
   xmlns:svg="http://www.w3.org/2000/svg">
  <defs
     id="defs8" />
  <sodipodi:namedview
     id="namedview6"
     pagecolor="#ffffff"
     bordercolor="#666666"
     borderopacity="1.0"
     inkscape:pageshadow="2"
     inkscape:pageopacity="0.0"
     inkscape:pagecheckerboard="0"
     showgrid="false"
     inkscape:zoom="26"
     inkscape:cx="7.1153846"
     inkscape:cy="11.019231"
     inkscape:window-width="1920"
     inkscape:window-height="1017"
     inkscape:window-x="-8"
     inkscape:window-y="-8"
     inkscape:window-maximized="1"
     inkscape:current-layer="svg4" />
  <path
     d="m 6.3718373,3.3275 c 1.2965,0 2.350875,1.054375 2.350875,2.350875 0,1.29525 -1.054375,2.349875 -2.350875,2.349875 -1.29525,0 -2.350875,-1.054625 -2.350875,-2.349875 0,-1.2965 1.055625,-2.350875 2.350875,-2.350875 z m 0,8.027 c 3.131875,0 5.6777497,-2.545875 5.6777497,-5.676125 C 12.049587,2.546875 9.5037123,0 6.3718373,0 3.2407123,0 0.69408733,2.546875 0.69408733,5.678375 c 0,3.130125 2.54662497,5.676125 5.67774997,5.676125 z m 2.297125,4.631875 C 9.8248373,15.723 10.939587,15.26575 11.966087,14.62075 c 0.776875,-0.489625 1.011125,-1.51675 0.5215,-2.29375 -0.489,-0.77875 -1.5155,-1.012875 -2.29375,-0.52325 -2.3256247,1.462875 -5.3201247,1.46225 -7.6444997,0 -0.778375,-0.489625 -1.80474997,-0.255375 -2.29324997,0.52325 -0.489625,0.777625 -0.256124998433,1.804125 0.521,2.29375 C 1.8034623,15.265 2.9182123,15.723 4.0740873,15.986375 l -3.17437497,3.17425 c -0.649,0.649625 -0.649,1.702625 6.25e-4,2.352125 0.32512497,0.3245 0.75049997,0.487125 1.17574997,0.487125 0.426,0 0.852,-0.1625 1.177125,-0.487125 l 3.117875,-3.11925 3.120625,3.11925 c 0.6489997,0.649625 1.7019997,0.649625 2.3514997,0 0.65025,-0.6495 0.65025,-1.70325 0,-2.352125 1.25e-4,0 -3.1742497,-3.17425 -3.1742497,-3.17425 z"
     id="path2"
     style="fill:#3e8e4e;fill-opacity:1;stroke-width:0.125" />
</svg>
