<?xml version="1.0" encoding="UTF-8" standalone="no"?>
<svg
   enable-background="new 0 0 100 100"
   height="42.659248"
   version="1.1"
   viewBox="0 0 72.537064 42.659248"
   width="72.537064"
   xml:space="preserve"
   id="svg6"
   sodipodi:docname="vk-g.svg"
   inkscape:version="1.1 (c68e22c387, 2021-05-23)"
   xmlns:inkscape="http://www.inkscape.org/namespaces/inkscape"
   xmlns:sodipodi="http://sodipodi.sourceforge.net/DTD/sodipodi-0.dtd"
   xmlns="http://www.w3.org/2000/svg"
   xmlns:svg="http://www.w3.org/2000/svg"><defs
     id="defs10" /><sodipodi:namedview
     id="namedview8"
     pagecolor="#ffffff"
     bordercolor="#666666"
     borderopacity="1.0"
     inkscape:pageshadow="2"
     inkscape:pageopacity="0.0"
     inkscape:pagecheckerboard="0"
     showgrid="false"
     inkscape:zoom="8.32"
     inkscape:cx="35.456731"
     inkscape:cy="21.213942"
     inkscape:window-width="1920"
     inkscape:window-height="1017"
     inkscape:window-x="-8"
     inkscape:window-y="-8"
     inkscape:window-maximized="1"
     inkscape:current-layer="svg6" /><g
     id="color_x5F_fill"
     style="fill:#3e8e4e;fill-opacity:1"
     transform="translate(-13.731022,-28.670422)"><path
       d="m 84.418,69.921 c -2.527,1.583 -12.807,2.054 -15.295,0.246 -1.365,-0.991 -2.613,-2.232 -3.799,-3.412 -0.828,-0.826 -1.77,-1.227 -2.482,-2.123 -0.58,-0.734 -0.979,-1.599 -1.592,-2.321 -1.033,-1.215 -2.625,-2.248 -3.885,-0.764 -1.895,2.231 0.299,6.617 -2.229,8.285 -0.848,0.56 -1.703,0.722 -2.762,0.642 l -2.346,0.107 C 48.649,70.608 46.466,70.62 44.899,70.337 43.149,70.022 41.706,69.066 40.126,68.364 37.124,67.033 34.263,65.219 32.087,62.706 26.165,55.863 18.21,46.451 15.12,37.847 14.483,36.079 12.806,32.58 14.397,31.063 c 2.164,-1.572 12.789,-2.017 14.445,0.416 0.674,0.987 1.098,2.436 1.574,3.555 0.592,1.396 0.914,2.713 1.84,3.949 0.82,1.097 1.426,2.199 2.061,3.402 0.713,1.349 1.385,2.643 2.252,3.886 0.588,0.845 2.143,2.524 3.125,2.65 2.398,0.307 2.248,-5.521 2.07,-6.945 -0.17,-1.371 -0.215,-2.825 -0.17,-4.216 0.039,-1.186 0.146,-2.857 -0.557,-3.826 -1.145,-1.58 -3.695,-0.397 -3.895,-2.52 0.422,-0.603 0.332,-1.138 3.146,-2.064 2.215,-0.729 3.646,-0.706 5.107,-0.589 2.98,0.239 6.139,-0.568 9.014,0.398 2.746,0.925 2.322,4.828 2.23,7.168 -0.123,3.195 0.008,6.312 0,9.553 -0.004,1.477 -0.062,2.912 1.736,2.793 1.688,-0.113 1.859,-1.532 2.664,-2.704 1.121,-1.633 2.148,-3.288 3.289,-4.916 1.537,-2.199 2,-4.67 3.447,-6.923 0.518,-0.807 0.963,-2.568 1.76,-3.205 0.604,-0.481 1.75,-0.275 2.48,-0.275 h 1.736 c 1.33,0.016 2.686,0.035 4.051,0.083 1.967,0.068 4.17,-0.359 6.121,-0.084 8.416,1.188 -10.578,19.191 -9.59,22.403 0.684,2.218 5.016,4.703 6.58,6.521 2.085,2.418 8.476,7.237 3.505,10.348 z"

       id="path2"
       style="fill:#3e8e4e;fill-opacity:1" /></g><g
     id="offset_x5F_print_x5F_outline"
     transform="translate(-13.731022,-28.670422)" /></svg>
