<svg id="decor-vector" xmlns="http://www.w3.org/2000/svg" viewBox="0 0 247.7 30.5"><defs><style>.cls-1{fill:#fff;}</style></defs><path class="cls-1" d="M217.22,293.32H191.58a16.3,16.3,0,0,1-1.43-1.28,19.05,19.05,0,0,1-2.82-3.68,16.39,16.39,0,0,1-2.65,3.62,16.12,16.12,0,0,1-1.5,1.34H148.7L143.37,288l3-3c2.6.92,16.9,5.93,22.29,7.29,5.94,1.5,10.11.2,12.07-1.53s2.41-3.61,1.5-5.51a4.89,4.89,0,0,0-3.66-2.41c2.94,2.41,2.66,5.85-.65,7-3.65,1.24-6.26,1.24-14.08-1.47-8.17-2.82-16.93-8.61-16.93-8.61l-5.9,5.9-5.9-5.9s-8.77,5.79-16.93,8.61c-7.82,2.71-10.43,2.71-14.08,1.47-3.31-1.13-3.59-4.57-.66-7a4.87,4.87,0,0,0-3.65,2.41c-.92,1.9-.46,3.79,1.5,5.51s6.13,3,12.07,1.53c5.38-1.36,19.69-6.37,22.28-7.29l3,3-5.33,5.33H98.78a16.12,16.12,0,0,1-1.5-1.34,16.82,16.82,0,0,1-2.66-3.62A18.27,18.27,0,0,1,91.8,292a16.24,16.24,0,0,1-1.42,1.28H64.74c-32.34.69-47.61,1.31-47.61,1.85s15.27,1.05,47.61,1.5H90.55c.35.27.7.58,1.06.92a15.3,15.3,0,0,1,3,4,17.27,17.27,0,0,1,3.12-4c.35-.34.7-.64,1.05-.92h34.47L138.6,302l-3,3c-2.56-.9-16.91-5.93-22.3-7.3-5.94-1.5-10.11-.19-12.07,1.54s-2.42,3.61-1.5,5.51a4.87,4.87,0,0,0,3.65,2.41c-2.93-2.41-2.65-5.86.66-7,3.65-1.24,6.26-1.24,14.08,1.47s16.43,8.28,16.88,8.58l.05,0,5.9-5.9,5.9,5.9,0,0c.46-.3,9-5.83,16.89-8.58s10.43-2.71,14.08-1.47c3.31,1.12,3.59,4.57.65,7a4.89,4.89,0,0,0,3.66-2.41c.91-1.9.45-3.79-1.5-5.51s-6.13-3-12.07-1.54c-5.39,1.37-19.74,6.4-22.3,7.3l-3-3,5.34-5.34h34.47c.34.28.69.58,1.05.92a16.91,16.91,0,0,1,3.11,4,15.6,15.6,0,0,1,3-4c.35-.34.71-.65,1.05-.92h25.82c32.34-.45,47.61-.95,47.61-1.5S249.56,294,217.22,293.32ZM136.38,295l4.6-4.59,4.6,4.59-4.6,4.6Z" transform="translate(-17.13 -279.75)"/></svg>