<svg id="vector" xmlns="http://www.w3.org/2000/svg" viewBox="0 0 70.76 84.03"><defs><style>.cls-1{fill:#fff;}</style></defs><path class="cls-1" d="M119,170.29v84h70.76v-84Zm40.86,64.92a4.41,4.41,0,0,1-6.23,0L133.33,214.9a4.4,4.4,0,0,1-1.18-4,4.31,4.31,0,0,1,1.21-2.29l19.2-19.21a4.42,4.42,0,0,1,6.23,0h0a4.41,4.41,0,0,1,0,6.23l-16.15,16.15L159.87,229A4.41,4.41,0,0,1,159.87,235.21Zm17.14,0a4.41,4.41,0,0,1-6.23,0L150.47,214.9a4.54,4.54,0,0,1,0-6.32l19.21-19.21a4.41,4.41,0,0,1,6.22,0h0a4.41,4.41,0,0,1,0,6.23l-16.15,16.15L177,229A4.41,4.41,0,0,1,177,235.21Z" transform="translate(-119.01 -170.29)"/></svg>