<svg id="end" xmlns="http://www.w3.org/2000/svg" viewBox="0 0 275.73 161.38"><defs><style>.cls-1{fill:#fff;}</style></defs><path class="cls-1" d="M222.09,379c-27.45,3.93-53.47-3.63-71.73-18.58l.75.08c24,11.69,55.85,11.26,84.72-3.71a109.2,109.2,0,0,0,13.54-8.33A93.41,93.41,0,0,1,268,359.73h18.43a96.71,96.71,0,0,0-28.34-18.32,96.73,96.73,0,0,0,21.3-27.16L262,320.33a93.56,93.56,0,0,1-14.4,17.26A108.61,108.61,0,0,0,231.29,334q-4.08-.57-8.11-.84c1.83-1.75,3.62-3.56,5.36-5.46a109.13,109.13,0,0,0,9.52-12A93.43,93.43,0,0,1,262,320.3l17.4-6.08a97.47,97.47,0,0,0-35.59-8.09,96.92,96.92,0,0,0,10.93-33.44L240.52,284.4a93.63,93.63,0,0,1-7.91,21.89,108.73,108.73,0,0,0-13.79,1.79A111.76,111.76,0,0,0,207.19,311q2.22-4.38,4.09-9.08a109.75,109.75,0,0,0,4.34-13.47,93.81,93.81,0,0,1,24.87-4.11l14.23-11.71a97.56,97.56,0,0,0-36.95,4.94,97.34,97.34,0,0,0-1.49-36.33l-9.14,16a93.88,93.88,0,0,1,.26,24.41,110.34,110.34,0,0,0-11.65,6.15q-3.62,2.21-7,4.62c.3-2.74.52-5.52.61-8.34a108.55,108.55,0,0,0-.7-16.71,93.81,93.81,0,0,1,18.42-10.15l9.15-16a96.68,96.68,0,0,0-29.48,15.15,96.79,96.79,0,0,0-13-31.13l-3.25,18.14a93.15,93.15,0,0,1,7.76,20.13,109.34,109.34,0,0,0-11.75,12.82c-1.92,2.46-3.71,5-5.37,7.55-.74-3-1.6-6-2.6-9a111.13,111.13,0,0,0-4.73-11.72,94.15,94.15,0,0,1,16.66-19.84l3.25-18.14a97.5,97.5,0,0,0-25.2,28.15,97.56,97.56,0,0,0-25.37-28l3.35,18.13a93.64,93.64,0,0,1,16.79,19.74A107.59,107.59,0,0,0,138.62,275c-1,3-1.83,6-2.55,9-1.68-2.61-3.49-5.19-5.44-7.7a108.1,108.1,0,0,0-11.73-12.88,93,93,0,0,1,7.56-19.88l-3.36-18.12a96.85,96.85,0,0,0-12.76,30.8A96.51,96.51,0,0,0,81,241l9.1,16a93.41,93.41,0,0,1,18.37,10.2,108.66,108.66,0,0,0-.65,17.1c.11,2.71.33,5.39.63,8q-3.42-2.49-7.09-4.76a108.1,108.1,0,0,0-11.64-6.22,93.72,93.72,0,0,1,.35-24.34l-9.1-16a97.17,97.17,0,0,0-1.61,36.23,97.44,97.44,0,0,0-36.89-5.12L56.62,284a93.76,93.76,0,0,1,24.84,4.23,109.26,109.26,0,0,0,4.31,13.57q1.73,4.38,3.76,8.5Q85,308.93,80.28,308a107.65,107.65,0,0,0-15.84-2,93.06,93.06,0,0,1-7.84-22L42.44,272.19A97.05,97.05,0,0,0,53.38,306a97,97,0,0,0-33.71,7.87L37.05,320a93.09,93.09,0,0,1,22.11-4.47,108.18,108.18,0,0,0,9.2,11.71c1.83,2,3.73,4,5.67,5.82-2.7.19-5.41.46-8.14.85a108.22,108.22,0,0,0-14.78,3.19A93.41,93.41,0,0,1,37,320.07l-17.38-6.13a97,97,0,0,0,20.83,26.89,97,97,0,0,0-29.77,18.9H29.15a93.62,93.62,0,0,1,20-11.85,107.85,107.85,0,0,0,14,8.73c27.64,14.45,58.09,15.55,81.72,5.38-18.13,13.9-43.27,20.79-69.74,17a96.91,96.91,0,0,1-45.93-19.23H10.72c14,13.15,33.19,22.63,55.17,25.77,32.34,4.64,62.7-5.58,81.46-24.69l.52-.25h0a1.8,1.8,0,0,1,0,.19l.07-.11,0,0-.07.11.17,0,.06,0v-.06h0l0,.05.05-.07.17,0,.47.12-.12-.22h0l.12.2a2.33,2.33,0,0,0,.07-.25l.22-.06.23.33,0-.28,0,0,0,.25.18-.12c18.75,19.22,49.18,29.5,81.62,24.85,22-3.14,41.16-12.62,55.16-25.77H268A96.87,96.87,0,0,1,222.09,379Zm-82.78-76.05a96.08,96.08,0,0,1,6.94,17.32,90.36,90.36,0,0,0-1.6,20.92A87.59,87.59,0,0,0,139,327.64,95.64,95.64,0,0,1,139.31,302.94Zm9.17,26.8a86.66,86.66,0,0,1,1.21,20.93c-.47,2.4-.83,4.81-1.06,7.21-.22-.45-.44-.9-.67-1.35-.18-1.6-.41-3.19-.69-4.78A87.16,87.16,0,0,1,148.48,329.74Zm2.26-9.47A96.82,96.82,0,0,1,158,302.56a95.76,95.76,0,0,1,.6,23.74,88.93,88.93,0,0,0-6.27,14.46A90.54,90.54,0,0,0,150.74,320.27ZM137.6,352.56a79,79,0,0,0,7.65,6.24,85.15,85.15,0,0,1-21.07-12.88A85.91,85.91,0,0,1,137.6,352.56Zm35.07-6.51a85.77,85.77,0,0,1-19.21,12,78.84,78.84,0,0,0,7.15-6.09A86.84,86.84,0,0,1,172.67,346.05Zm-24.24,13.31-.14.25,0-.05c0-.18,0-.36,0-.55Zm2.08-.1-.35.14-.34.12.08-.06.27-.1.16-.26q1.41-1.16,2.88-2.25C152.33,357.68,151.43,358.48,150.51,359.26Zm-.58-.72-.48.49c.28-.4.55-.81.82-1.22C150.15,358.05,150,358.3,149.93,358.54Zm32.49-15.74a96.88,96.88,0,0,1,23-3.3c-16.13,12.8-35.07,19.66-53.36,20.16A85.13,85.13,0,0,0,182.42,342.8Zm-16,3a90,90,0,0,0,9.45-13.41,95.59,95.59,0,0,1,16.76-9.09,96.18,96.18,0,0,1-12.59,16A89.86,89.86,0,0,0,166.42,345.78Zm-7.11,4.67a78.27,78.27,0,0,0-7.43,6.18,84.76,84.76,0,0,1,16-18.2A86.6,86.6,0,0,1,159.31,350.45Zm-3.86-1.78a87.62,87.62,0,0,0,7-21.13,95.79,95.79,0,0,1,17-19.06,96.4,96.4,0,0,1-6.91,21.28A87.22,87.22,0,0,0,155.45,348.67Zm-5.19,7.17q.62-2.65,1.07-5.37a85,85,0,0,1,5.53-13.54A84.33,84.33,0,0,1,150.26,355.84Zm-4.5-4.3c.07.42.14.85.22,1.27l-.17-.28a85.16,85.16,0,0,1-4.47-12.79A84.63,84.63,0,0,1,145.76,351.54Zm-5.85-7.83A89.86,89.86,0,0,0,124,327.79a96.33,96.33,0,0,1-6.08-19.1,95.67,95.67,0,0,1,17.34,20.06A88.41,88.41,0,0,0,139.91,343.71Zm4.3,8.92c.86,1.54,1.77,3.05,2.72,4.51.12.5.26,1,.39,1.47a77.2,77.2,0,0,0-8.34-7.34,87.34,87.34,0,0,1-10.76-15.11A87.3,87.3,0,0,1,144.21,352.63Zm-12.8-6.46a88.56,88.56,0,0,0-14.5-7,96.25,96.25,0,0,1-13.14-17,96.81,96.81,0,0,1,16.84,8.56A90.9,90.9,0,0,0,131.41,346.17Zm-16.83-3.41A85.22,85.22,0,0,0,145,359.71c-18.27-.53-37.17-7.41-53.26-20.21A96.28,96.28,0,0,1,114.58,342.76Zm107.51-2.26a100.76,100.76,0,0,1,17.3,4.06,100.83,100.83,0,0,1-14.4,9.07c-23.62,12.24-49.48,14.07-71.11,7.06,20.6,1.1,42.81-6.1,61.62-20.91C217.69,340,219.88,340.18,222.09,340.5Zm-9.79-23.21a101.35,101.35,0,0,1,15-1.79,100.39,100.39,0,0,1-10,12.94q-2.11,2.31-4.32,4.45a102,102,0,0,0-23.58,3.38,102.7,102.7,0,0,0,12.85-16.46A102.19,102.19,0,0,1,212.3,317.29Zm-19.49-18.56a101.79,101.79,0,0,1,12.74-6.56A102,102,0,0,1,201,306.69c-1.08,2.71-2.27,5.35-3.54,7.91A102,102,0,0,0,180.2,324a102.4,102.4,0,0,0,7-21.55Q189.93,300.49,192.81,298.73Zm-25.19-11.14A100.38,100.38,0,0,1,180.35,274a101.54,101.54,0,0,1,1,18c-.08,2.25-.24,4.48-.46,6.69a101.94,101.94,0,0,0-17.08,19.08,101.86,101.86,0,0,0-.71-23.84C164.51,291.79,166,289.66,167.62,287.59Zm-24.18-2.36a100.79,100.79,0,0,1,5.13-12.59,101.49,101.49,0,0,1,5.19,12.56c.85,2.49,1.58,5,2.22,7.5A102.31,102.31,0,0,0,148.51,311a102.59,102.59,0,0,0-7.27-18.11C141.87,290.36,142.6,287.79,143.44,285.23Zm-27.52,7a101,101,0,0,1,.91-18.26,101.76,101.76,0,0,1,12.65,13.57c1.67,2.17,3.22,4.38,4.69,6.63a101.21,101.21,0,0,0-.47,24.42,101.77,101.77,0,0,0-17.29-19.77C116.18,296.63,116,294.43,115.92,292.21ZM96,306.52a101.5,101.5,0,0,1-4.48-14.6,100,100,0,0,1,12.71,6.63c2,1.23,4,2.53,5.84,3.88a102.94,102.94,0,0,0,6.41,20,103,103,0,0,0-17.42-8.9C98,311.25,96.94,308.92,96,306.52Zm-26.25,8.77a99.93,99.93,0,0,1,17,1.92q3.9.78,7.64,1.83a102.09,102.09,0,0,0,13.26,17.19,102.07,102.07,0,0,0-23.46-3.34c-1.57-1.53-3.1-3.11-4.59-4.76A100.61,100.61,0,0,1,69.75,315.29ZM74,353.5a101.37,101.37,0,0,1-14.74-9.41,101.76,101.76,0,0,1,15.87-3.59c2.22-.32,4.42-.55,6.62-.72,19.61,15.47,43,22.64,64.3,20.71C124.15,367.8,97.87,366,74,353.5Z" transform="translate(-10.72 -225.26)"/></svg>