<svg id="vector" xmlns="http://www.w3.org/2000/svg" viewBox="0 0 70.76 84.03"><defs><style>.cls-1{fill:#fff;}</style></defs><path class="cls-1" d="M119,170.29v84h70.76v-84ZM148.91,229l17.23-17.23L150,195.6a4.41,4.41,0,0,1,0-6.23h0a4.42,4.42,0,0,1,6.23,0l19.21,19.21a4.52,4.52,0,0,1,0,6.32l-20.31,20.31a4.41,4.41,0,1,1-6.23-6.23Zm-17.14,0L149,211.75,132.85,195.6a4.41,4.41,0,0,1,0-6.23h0a4.42,4.42,0,0,1,6.23,0l19.2,19.21a4.31,4.31,0,0,1,1.21,2.29,4.4,4.4,0,0,1-1.18,4L138,235.21a4.41,4.41,0,1,1-6.23-6.23Z" transform="translate(-119.01 -170.29)"/></svg>