<?xml version="1.0" encoding="utf-8"?><svg viewBox="0 0 512 512" xmlns="http://www.w3.org/2000/svg" xmlns:xlink="http://www.w3.org/1999/xlink"><style>:root>svg{display:none}:root>svg:target{display:block}</style><svg viewBox="0 0 129 129" id="arrow" xmlns="http://www.w3.org/2000/svg"><path d="M40.4 121.3c-.8.8-1.8 1.2-2.9 1.2s-2.1-.4-2.9-1.2c-1.6-1.6-1.6-4.2 0-5.8l51-51-51-51c-1.6-1.6-1.6-4.2 0-5.8 1.6-1.6 4.2-1.6 5.8 0l53.9 53.9c1.6 1.6 1.6 4.2 0 5.8l-53.9 53.9z"/></svg><svg viewBox="0 0 21 24" id="arrows-down" xmlns="http://www.w3.org/2000/svg"><path d="M10.307 23.888c.398-.04.775-.2 1.078-.46l8.139-6.977a1.937 1.937 0 00-1.093-3.447 1.94 1.94 0 00-1.426.504l-6.88 5.899-6.88-5.9a1.94 1.94 0 00-2.78.17 1.937 1.937 0 00.26 2.774l8.14 6.977c.399.342.92.507 1.442.46zm0-13c.398-.04.775-.2 1.078-.46l8.139-6.977a1.937 1.937 0 10-2.52-2.943l-6.879 5.898L3.245.508a1.94 1.94 0 00-2.78.17 1.937 1.937 0 00.26 2.774l8.14 6.976c.399.342.92.507 1.442.46z"/></svg><svg viewBox="0 0 74.867 34.714" id="down" xmlns="http://www.w3.org/2000/svg"><path d="M37.845 0c-1.886-.03-3.9.768-5.479 2.347L0 34.713h74.866l-33.12-33.12C40.7.548 39.31.024 37.844.001z"/></svg><svg viewBox="0 0 502.664 502.664" id="icon" xmlns="http://www.w3.org/2000/svg"><path d="M153.821 358.226L0 274.337v-46.463l153.821-83.414v54.574L46.636 250.523l107.185 53.431v54.272zm26.273 29.358L282.103 115.08h32.227L212.084 387.584h-31.99zm168.749-29.358v-54.272l107.164-52.999-107.164-52.59v-53.927l153.821 83.522v46.183l-153.821 84.083z"/></svg><svg viewBox="0 0 12.743 22" id="odno" xmlns="http://www.w3.org/2000/svg"><path d="M6.372 3.328a2.353 2.353 0 012.35 2.35 2.353 2.353 0 01-2.35 2.35 2.354 2.354 0 01-2.351-2.35 2.354 2.354 0 012.35-2.35zm0 8.026a5.682 5.682 0 005.678-5.676A5.683 5.683 0 006.372 0 5.684 5.684 0 00.694 5.678a5.683 5.683 0 005.678 5.676zm2.297 4.632c1.156-.263 2.27-.72 3.297-1.365a1.664 1.664 0 00-1.772-2.817 7.208 7.208 0 01-7.645 0A1.663 1.663 0 00.777 14.62a10.65 10.65 0 003.297 1.365L.9 19.161a1.664 1.664 0 002.353 2.352l3.118-3.12 3.12 3.12a1.662 1.662 0 102.352-2.352L8.67 15.986z"/></svg><svg viewBox="0 0 20 20" id="trash" xmlns="http://www.w3.org/2000/svg"><g clip-path="url(#fa)" fill-opacity=".3"><path d="M18.572 2.857h-5v-.714A2.144 2.144 0 0011.428 0H8.572C7.388 0 6.429.96 6.429 2.143v.714h-5a.714.714 0 100 1.429h.776L3.572 19.35c.033.369.343.65.714.649h11.428c.37.002.681-.28.715-.65l1.366-15.064h.776a.714.714 0 100-1.429zM7.857 2.143c0-.395.32-.714.715-.714h2.857c.394 0 .714.32.714.714v.714H7.857v-.714zm7.205 16.428H4.938L3.643 4.286H16.36L15.062 18.57z"/><path d="M7.857 16.381v-.003l-.714-10a.716.716 0 00-1.429.101l.715 10a.714.714 0 00.714.664h.051a.714.714 0 00.663-.762zM10 5.714a.714.714 0 00-.714.715v10a.714.714 0 101.428 0v-10A.714.714 0 0010 5.714zm3.622 0a.716.716 0 00-.765.664l-.714 10a.714.714 0 00.66.764h.053a.713.713 0 00.715-.663l.715-10a.716.716 0 00-.664-.765z"/></g><defs><clipPath id="fa"><path d="M0 0h20v20H0z"/></clipPath></defs></svg><svg viewBox="0 0 512 512" id="twit" xmlns="http://www.w3.org/2000/svg"><path d="M3.5 421.4c56 5.1 106.1-8.9 151.5-42.9-7-1.6-13.4-1.6-19.5-3.1-35.7-8.5-60.4-30-74.9-63.5-.7-1.7-2.5-3.8-.9-5.5 1.2-1.3 3.5-.2 5.2 0 12.6 1.3 25.2.9 37.6-2 .2-2.2-1.4-2-2.6-2.4-30.7-8.2-53-26.5-67.4-54.8-6.6-13-10.2-26.6-10.6-41.2-.2-5.7.1-5.8 5.4-3.3 12.6 6 25.8 9.4 40.9 10.1-6.9-5.6-13.1-10.5-18.4-16.4-16.1-17.9-25.1-38.8-27-62.9-1.5-19.6 2.6-37.9 11.1-55.5 1.9-3.9 3.6-3.6 6-.7C56.6 97.7 76.1 115 97.6 130c16 11.2 33 20.5 50.9 28.4 23.6 10.3 48.1 17.2 73.5 21.3 8 1.3 16.2 1.6 24.3 2.4 4.1.4 5.2-.8 4.4-5-4.1-21.6-1.3-42.6 8.1-62.3 16.1-33.6 43.1-54 79.8-59.4 32.6-4.8 61.9 4.5 86.2 27.4 3.7 3.5 7 4.4 12 3.1 19.6-5 38.3-12.1 55.9-22.1.5-.3 1.1-.4 2.9-1.1-8.2 24.1-22.7 41.9-43 55.5 4.7.9 18.6-1.6 28.2-4.6 9.2-2.9 18.4-5.5 27.2-9.4 1.2 1.3.1 2-.4 2.7-11.7 16.5-25.1 31.4-41.1 43.8-2.2 1.7-4.3 3.6-6.6 5.2-1.7 1.2-1.8 2.7-1.7 4.4.7 18.2-.6 36.3-3.2 54.2-2.7 18.3-7.3 36.1-13.4 53.6-5 14.3-10.9 28.2-17.9 41.7-17.3 33.2-39.8 62.4-67.9 87.3-29.9 26.4-63.9 45.4-101.9 57.2-23.7 7.4-48 11.7-72.9 13-19.2 1-38.3.7-57.3-1.7-27.2-3.3-53.4-10.7-78.6-21.5-12.9-5.5-25.1-12.1-37.3-19-1.7-.7-3.4-1.5-4.3-3.7z"/></svg><svg viewBox="0 0 24 24" id="up-arrow" xmlns="http://www.w3.org/2000/svg"><path d="M5.306 15.694a1.043 1.043 0 001.476 0L12 10.47l5.218 5.224a1.043 1.043 0 001.476 0 1.046 1.046 0 000-1.478l-5.904-5.91a1.04 1.04 0 00-.79-.305 1.04 1.04 0 00-.79.305l-5.904 5.91a1.046 1.046 0 000 1.478z" clip-rule="evenodd"/></svg><svg viewBox="0 0 72.537 42.659" id="vk" xmlns="http://www.w3.org/2000/svg"><path d="M70.687 41.251c-2.527 1.583-12.807 2.054-15.295.246-1.365-.991-2.613-2.232-3.799-3.412-.828-.826-1.77-1.227-2.482-2.123-.58-.734-.979-1.599-1.592-2.321-1.033-1.215-2.625-2.248-3.885-.764-1.895 2.231.299 6.617-2.229 8.285-.848.56-1.703.722-2.762.642l-2.346.107c-1.379.027-3.562.039-5.129-.244-1.75-.315-3.193-1.271-4.773-1.973-3.002-1.331-5.863-3.145-8.039-5.658C12.434 27.193 4.479 17.781 1.389 9.177.752 7.409-.925 3.91.666 2.393 2.83.821 13.455.376 15.111 2.809c.674.987 1.098 2.436 1.574 3.555.592 1.396.914 2.713 1.84 3.949.82 1.097 1.426 2.199 2.061 3.402.713 1.349 1.385 2.643 2.252 3.886.588.845 2.143 2.524 3.125 2.65 2.398.307 2.248-5.521 2.07-6.945a27.562 27.562 0 01-.17-4.216c.039-1.186.146-2.857-.557-3.826-1.145-1.58-3.695-.397-3.895-2.52.422-.603.332-1.138 3.146-2.064 2.215-.729 3.646-.706 5.107-.589 2.98.239 6.139-.568 9.014.398 2.746.925 2.322 4.828 2.23 7.168-.123 3.195.008 6.312 0 9.553-.004 1.477-.062 2.912 1.736 2.793 1.688-.113 1.859-1.532 2.664-2.704 1.121-1.633 2.148-3.288 3.289-4.916 1.537-2.199 2-4.67 3.447-6.923.518-.807.963-2.568 1.76-3.205.604-.481 1.75-.275 2.48-.275h1.736c1.33.016 2.686.035 4.051.083 1.967.068 4.17-.359 6.121-.084 8.416 1.188-10.578 19.191-9.59 22.403.684 2.218 5.016 4.703 6.58 6.521 2.085 2.418 8.476 7.237 3.505 10.348z"/></svg><svg viewBox="0 0 414.755 418.135" id="what" xmlns="http://www.w3.org/2000/svg"><path d="M197.239.242C86.81 5.5-.334 97.466.001 208.02c.102 33.672 8.231 65.454 22.571 93.536L.555 408.429c-1.191 5.781 4.023 10.843 9.766 9.483l104.723-24.811c26.905 13.402 57.125 21.143 89.108 21.631 112.869 1.724 206.982-87.897 210.5-200.724C418.423 93.065 318.605-5.538 197.239.242zm124.957 321.955c-30.669 30.669-71.446 47.559-114.818 47.559-25.396 0-49.71-5.698-72.269-16.935l-14.584-7.265-64.206 15.212 13.515-65.607-7.185-14.07C50.938 258.156 45 233.355 45 207.378c0-43.373 16.89-84.149 47.559-114.819 30.395-30.395 71.837-47.56 114.822-47.56 43.372.001 84.147 16.891 114.816 47.559 30.669 30.669 47.559 71.445 47.56 114.817-.001 42.986-17.166 84.428-47.561 114.822z"/><path d="M308.022 252.351l-40.169-11.534a14.971 14.971 0 00-14.816 3.903l-9.823 10.008c-4.142 4.22-10.427 5.576-15.909 3.358-19.002-7.69-58.974-43.23-69.182-61.007-2.945-5.128-2.458-11.539 1.158-16.218l8.576-11.095a14.97 14.97 0 001.847-15.21l-16.9-38.223c-4.048-9.155-15.747-11.82-23.39-5.356-11.211 9.482-24.513 23.891-26.13 39.854-2.851 28.144 9.219 63.622 54.862 106.222 52.73 49.215 94.956 55.717 122.449 49.057 15.594-3.777 28.056-18.919 35.921-31.317 5.362-8.453 1.128-19.679-8.494-22.442z"/></svg></svg>